<mxfile host="app.diagrams.net" modified="2023-06-06T09:10:09.081Z" agent="Mozilla/5.0 (X11; Linux x86_64) AppleWebKit/537.36 (KHTML, like Gecko) Chrome/110.0.0.0 YaBrowser/23.3.3.764 Yowser/2.5 Safari/537.36" version="21.3.7" etag="7znezSBCZzpaUKlIIrYo" type="github">
  <diagram name="Страница 1" id="tucOljEIpGPp9D8KFjmM">
    <mxGraphModel>
      <root>
        <mxCell id="0" />
        <mxCell id="1" parent="0" />
      </root>
    </mxGraphModel>
  </diagram>
</mxfile>
